HIERARCHY
ROOT Hips
{
	OFFSET 0.00000 0.00000 0.00000
	CHANNELS 6 Xposition Yposition Zposition Zrotation Yrotation Xrotation 
	JOINT LHipJoint
	{
		OFFSET 0 0 0
		CHANNELS 3 Zrotation Yrotation Xrotation
		JOINT LeftUpLeg
		{
			OFFSET 1.56857 -1.73443 1.15205
			CHANNELS 3 Zrotation Yrotation Xrotation
			JOINT LeftLeg
			{
				OFFSET 2.39362 -6.57643 0.00000
				CHANNELS 3 Zrotation Yrotation Xrotation
				JOINT LeftFoot
				{
					OFFSET 2.50952 -6.89485 0.00000
					CHANNELS 3 Zrotation Yrotation Xrotation
					JOINT LeftToeBase
					{
						OFFSET 0.17171 -0.47178 1.88682
						CHANNELS 3 Zrotation Yrotation Xrotation
						End Site
						{
							OFFSET 0.00000 -0.00000 0.98146
						}
					}
				}
			}
		}
	}
	JOINT RHipJoint
	{
		OFFSET 0 0 0
		CHANNELS 3 Zrotation Yrotation Xrotation
		JOINT RightUpLeg
		{
			OFFSET -1.28153 -1.73443 1.15205
			CHANNELS 3 Zrotation Yrotation Xrotation
			JOINT RightLeg
			{
				OFFSET -2.26861 -6.23296 0.00000
				CHANNELS 3 Zrotation Yrotation Xrotation
				JOINT RightFoot
				{
					OFFSET -2.54143 -6.98254 0.00000
					CHANNELS 3 Zrotation Yrotation Xrotation
					JOINT RightToeBase
					{
						OFFSET -0.23309 -0.64041 1.93119
						CHANNELS 3 Zrotation Yrotation Xrotation
						End Site
						{
							OFFSET -0.00000 -0.00000 1.02013
						}
					}
				}
			}
		}
	}
	JOINT LowerBack
	{
		OFFSET 0 0 0
		CHANNELS 3 Zrotation Yrotation Xrotation
		JOINT Spine
		{
			OFFSET -0.07096 2.10460 -0.27878
			CHANNELS 3 Zrotation Yrotation Xrotation
			JOINT Spine1
			{
				OFFSET -0.00826 2.13662 -0.08279
				CHANNELS 3 Zrotation Yrotation Xrotation
				JOINT Neck
				{
					OFFSET 0 0 0
					CHANNELS 3 Zrotation Yrotation Xrotation
					JOINT Neck1
					{
						OFFSET 0.03239 1.77799 0.24435
						CHANNELS 3 Zrotation Yrotation Xrotation
						JOINT Head
						{
							OFFSET 0.01026 1.74194 -0.49664
							CHANNELS 3 Zrotation Yrotation Xrotation
							End Site
							{
								OFFSET 0.00170 1.83057 -0.19653
							}
						}
					}
				}
				JOINT LeftShoulder
				{
					OFFSET 0 0 0
					CHANNELS 3 Zrotation Yrotation Xrotation
					JOINT LeftArm
					{
						OFFSET 3.19178 1.35907 -0.31412
						CHANNELS 3 Zrotation Yrotation Xrotation
						JOINT LeftForeArm
						{
							OFFSET 4.85247 -0.00000 -0.00000
							CHANNELS 3 Zrotation Yrotation Xrotation
							JOINT LeftHand
							{
								OFFSET 3.55584 -0.00000 0.00000
								CHANNELS 3 Zrotation Yrotation Xrotation
								JOINT LeftFingerBase
								{
									OFFSET 0 0 0
									CHANNELS 3 Zrotation Yrotation Xrotation
									JOINT LeftHandIndex1
									{
										OFFSET 0.69320 -0.00000 0.00000
										CHANNELS 3 Zrotation Yrotation Xrotation
										End Site
										{
											OFFSET 0.55888 -0.00000 0.00000
										}
									}
								}
								JOINT LThumb
								{
									OFFSET 0 0 0
									CHANNELS 3 Zrotation Yrotation Xrotation
									End Site
									{
										OFFSET 0.56741 -0.00000 0.56741
									}
								}
							}
						}
					}
				}
				JOINT RightShoulder
				{
					OFFSET 0 0 0
					CHANNELS 3 Zrotation Yrotation Xrotation
					JOINT RightArm
					{
						OFFSET -3.28999 1.24191 -0.26899
						CHANNELS 3 Zrotation Yrotation Xrotation
						JOINT RightForeArm
						{
							OFFSET -4.64462 -0.00000 0.00000
							CHANNELS 3 Zrotation Yrotation Xrotation
							JOINT RightHand
							{
								OFFSET -3.40703 -0.00000 0.00000
								CHANNELS 3 Zrotation Yrotation Xrotation
								JOINT RightFingerBase
								{
									OFFSET 0 0 0
									CHANNELS 3 Zrotation Yrotation Xrotation
									JOINT RightHandIndex1
									{
										OFFSET -0.61958 -0.00000 0.00000
										CHANNELS 3 Zrotation Yrotation Xrotation
										End Site
										{
											OFFSET -0.49952 -0.00000 0.00000
										}
									}
								}
								JOINT RThumb
								{
									OFFSET 0 0 0
									CHANNELS 3 Zrotation Yrotation Xrotation
									End Site
									{
										OFFSET -0.50715 -0.00000 0.50715
									}
								}
							}
						}
					}
				}
			}
		}
	}
}
MOTION
Frames: 7
Frame Time: .0083333
-29.6704 17.0614 0.989 0 0 0 0 0 0 -21 0 0 0 0 0 0 0 0 0 0 0 0 0 0 21 0 0 0 0 0 0 0 0 0 0 0 0 0 0 0 0 0 0 0 0 0 0 -16 0 0 21 0 0 11 0 0 0 -8 0 0 0 0 0 0 0 0 0 0 0 0 0 0 0 0 0 0 0 0 8 0 0 0 0 0 0 0 0 0 0 0 0 0 0 0 0 0
-29.6704 17.0614 0.9890 17.9899 85.1079 18.7208 0.0000 0.0000 0.0000 -16.7605 3.3010 10.4940 0.0245 -1.0100 -2.7763 0.2594 7.0416 -14.6807 0.1373 -2.3879 -6.5789 0.0000 0.0000 0.0000 13.7336 -5.7655 5.2764 -0.0247 -1.0156 2.7917 -0.6595 4.4563 -14.4799 -0.0021 -0.2935 0.8064 -3.3391 1.3094 3.6156 -0.1073 1.6142 0.2987 1.6775 0.8336 -1.8089 4.4702 3.5081 -20.2540 -2.7523 4.6533 26.3834 -1.0032 2.2798 12.2528 0.0000 0.0000 0.0000 -0.0000 0.0000 -0.0000 -0.0000 0.0000 -0.0000 -0.0000 0.0000 0.0000 -0.0000 -0.0000 0.0000 -0.0000 -0.0000 0.0000 -0.0000 0.0000 0.0000 0.0000 0.0000 0.0000 0.0000 -0.0000 -0.0000 0.0000 -0.0000 -0.0000 0.0000 0.0000 0.0000 0.0000 0.0000 0.0000 0.0000 0.0000 0.0000 0.0000 -0.0000 0.0000
-29.6750 17.0676 0.9887 14.2537 85.1744 15.0402 0.0000 0.0000 0.0000 -15.9576 4.2937 9.7663 0.0161 -0.8193 -2.2517 0.2944 5.9573 -14.1545 0.1517 -2.5100 -6.9175 0.0000 0.0000 0.0000 14.2130 -5.4921 5.2813 -0.0240 -1.0004 2.7500 -0.6692 4.1331 -14.6059 -0.0025 -0.3222 0.8852 -2.9057 1.3583 3.6162 -0.0983 1.6962 0.2847 1.4395 0.8712 -1.8157 4.5737 3.4786 -20.2554 -2.7787 4.5797 26.3394 -1.0429 2.2535 12.2362 -0.0000 0.0000 0.0000 -0.0000 0.0000 -0.0000 -0.0000 0.0000 -0.0000 -0.0000 0.0000 0.0000 -0.0000 -0.0000 0.0000 -0.0000 -0.0000 0.0000 -0.0000 0.0000 0.0000 -0.0000 0.0000 0.0000 0.0000 -0.0000 -0.0000 0.0000 -0.0000 -0.0000 0.0000 0.0000 0.0000 0.0000 0.0000 0.0000 0.0000 0.0000 0.0000 0.0000 -0.0000 0.0000
-29.6774 17.0680 0.9887 14.0477 85.1995 14.8758 0.0000 0.0000 0.0000 -15.8415 4.4661 9.5578 0.0145 -0.7776 -2.1370 0.2998 5.7509 -14.0483 0.1450 -2.4543 -6.7630 0.0000 0.0000 0.0000 14.2657 -5.4221 5.2468 -0.0241 -1.0018 2.7539 -0.6730 4.0017 -14.6580 -0.0019 -0.2815 0.7735 -2.8838 1.3532 3.5972 -0.0870 1.6906 0.2650 1.4393 0.8685 -1.8248 4.5581 3.4815 -20.2067 -2.7612 4.5827 26.2783 -1.0340 2.2556 12.2016 0.0000 0.0000 0.0000 -0.0000 0.0000 -0.0000 -0.0000 0.0000 -0.0000 -0.0000 0.0000 0.0000 -0.0000 -0.0000 0.0000 -0.0000 -0.0000 0.0000 -0.0000 0.0000 0.0000 0.0000 0.0000 0.0000 0.0000 -0.0000 -0.0000 0.0000 -0.0000 -0.0000 0.0000 0.0000 0.0000 0.0000 0.0000 0.0000 0.0000 0.0000 0.0000 0.0000 -0.0000 0.0000
-29.6790 17.0674 0.9894 14.0231 85.2058 14.9145 0.0000 0.0000 0.0000 -15.9827 3.9946 9.7043 0.0164 -0.8259 -2.2698 0.2866 6.2023 -14.2660 0.1456 -2.4587 -6.7751 0.0000 0.0000 0.0000 14.2848 -5.3692 5.1815 -0.0241 -1.0027 2.7563 -0.6720 4.0169 -14.6462 -0.0038 -0.3958 1.0877 -2.8505 1.3726 3.5504 -0.1179 1.7184 0.2455 1.3883 0.8820 -1.8180 4.6019 3.4451 -20.2916 -2.7915 4.5274 26.3899 -1.0607 2.2315 12.2623 -0.0000 0.0000 0.0000 -0.0000 0.0000 -0.0000 -0.0000 0.0000 -0.0000 -0.0000 0.0000 0.0000 -0.0000 -0.0000 0.0000 -0.0000 -0.0000 0.0000 -0.0000 0.0000 0.0000 -0.0000 0.0000 0.0000 0.0000 -0.0000 -0.0000 0.0000 -0.0000 -0.0000 0.0000 0.0000 0.0000 0.0000 0.0000 0.0000 0.0000 0.0000 0.0000 0.0000 -0.0000 0.0000
-29.6800 17.0680 0.9892 12.6173 85.2084 13.5120 0.0000 0.0000 0.0000 -15.9327 3.7629 9.8319 0.0172 -0.8460 -2.3251 0.2809 6.4545 -14.4194 0.1263 -2.2911 -6.3110 0.0000 0.0000 0.0000 14.4237 -5.3763 5.1610 -0.0242 -1.0039 2.7595 -0.6657 4.1309 -14.5679 -0.0098 -0.6381 1.7535 -2.7343 1.3789 3.5637 -0.0903 1.7311 0.2376 1.3504 0.8877 -1.8315 4.5519 3.4759 -20.2901 -2.6788 4.5513 26.3546 -1.0058 2.2514 12.2446 -0.0000 -0.0000 0.0000 -0.0000 0.0000 -0.0000 -0.0000 0.0000 -0.0000 -0.0000 0.0000 0.0000 -0.0000 -0.0000 0.0000 -0.0000 -0.0000 0.0000 -0.0000 0.0000 0.0000 -0.0000 -0.0000 0.0000 0.0000 -0.0000 -0.0000 0.0000 -0.0000 -0.0000 0.0000 0.0000 0.0000 0.0000 0.0000 0.0000 0.0000 0.0000 0.0000 0.0000 -0.0000 0.0000
-29.6826 17.0704 0.9887 11.7278 85.1647 12.5369 0.0000 0.0000 0.0000 -15.6866 4.3190 9.6343 0.0142 -0.7698 -2.1155 0.2918 6.0174 -14.1719 0.0765 -1.7843 -4.9100 0.0000 0.0000 0.0000 14.4904 -5.3945 5.2159 -0.0248 -1.0165 2.7941 -0.6586 4.2139 -14.4827 -0.0181 -0.8693 2.3893 -2.7830 1.3541 3.8191 0.0099 1.6875 0.1356 1.4753 0.8705 -2.0821 4.4866 3.5368 -20.1620 -2.6550 4.6692 26.4199 -0.9675 2.3042 12.2472 0.0000 -0.0000 0.0000 -87.3807 1.6991 36.2566 12.5621 -20.6422 -2.2966 -0.0000 -0.0000 12.1492 19.3202 -24.6529 -8.3199 -7.1250 0.0000 -0.0000 -6.1942 4.1741 5.7613 0.0000 -0.0000 0.0000 86.4790 -3.9522 38.8900 -16.6084 26.3386 -3.9120 0.0000 0.0000 5.6088 -10.5300 -36.1297 6.2545 7.1250 -0.0000 -0.0000 29.2090 -64.2623 -14.2074
